<mxfile host="app.diagrams.net" modified="2023-04-21T12:29:18.950Z" agent="Mozilla/5.0 (X11; Linux x86_64; rv:109.0) Gecko/20100101 Firefox/112.0" etag="kY5KNRjy-gcNUtfEDYSz" version="21.2.1" type="device">
  <diagram name="Page-1" id="PchW1Y0QIS6G1lz6r0_7">
    <mxGraphModel dx="1195" dy="667" grid="1" gridSize="10" guides="1" tooltips="1" connect="1" arrows="1" fold="1" page="1" pageScale="1" pageWidth="850" pageHeight="1100" math="0" shadow="0">
      <root>
        <mxCell id="0" />
        <mxCell id="1" parent="0" />
        <mxCell id="hhqkoH7DIy3Lh6CEVrbi-45" value="" style="edgeStyle=orthogonalEdgeStyle;rounded=0;orthogonalLoop=1;jettySize=auto;html=1;" edge="1" parent="1" source="hhqkoH7DIy3Lh6CEVrbi-1" target="hhqkoH7DIy3Lh6CEVrbi-38">
          <mxGeometry relative="1" as="geometry" />
        </mxCell>
        <mxCell id="hhqkoH7DIy3Lh6CEVrbi-1" value="&lt;div&gt;Start&lt;/div&gt;" style="strokeWidth=2;html=1;shape=mxgraph.flowchart.terminator;whiteSpace=wrap;" vertex="1" parent="1">
          <mxGeometry x="150" y="40" width="100" height="60" as="geometry" />
        </mxCell>
        <mxCell id="hhqkoH7DIy3Lh6CEVrbi-26" value="End" style="strokeWidth=2;html=1;shape=mxgraph.flowchart.terminator;whiteSpace=wrap;" vertex="1" parent="1">
          <mxGeometry x="150" y="900" width="100" height="60" as="geometry" />
        </mxCell>
        <mxCell id="hhqkoH7DIy3Lh6CEVrbi-33" value="true" style="text;html=1;strokeColor=none;fillColor=none;align=center;verticalAlign=middle;whiteSpace=wrap;rounded=0;" vertex="1" parent="1">
          <mxGeometry x="200" y="330" width="30" height="20" as="geometry" />
        </mxCell>
        <mxCell id="hhqkoH7DIy3Lh6CEVrbi-34" value="false" style="text;html=1;strokeColor=none;fillColor=none;align=center;verticalAlign=middle;whiteSpace=wrap;rounded=0;" vertex="1" parent="1">
          <mxGeometry x="250" y="690" width="30" height="20" as="geometry" />
        </mxCell>
        <mxCell id="hhqkoH7DIy3Lh6CEVrbi-48" value="" style="edgeStyle=orthogonalEdgeStyle;rounded=0;orthogonalLoop=1;jettySize=auto;html=1;" edge="1" parent="1" source="hhqkoH7DIy3Lh6CEVrbi-37" target="hhqkoH7DIy3Lh6CEVrbi-39">
          <mxGeometry relative="1" as="geometry" />
        </mxCell>
        <mxCell id="hhqkoH7DIy3Lh6CEVrbi-37" value="&lt;div&gt;input&lt;/div&gt;&lt;div&gt;num&lt;br&gt;&lt;/div&gt;" style="shape=parallelogram;html=1;strokeWidth=2;perimeter=parallelogramPerimeter;whiteSpace=wrap;rounded=1;arcSize=12;size=0.23;" vertex="1" parent="1">
          <mxGeometry x="150" y="370" width="100" height="60" as="geometry" />
        </mxCell>
        <mxCell id="hhqkoH7DIy3Lh6CEVrbi-46" value="" style="edgeStyle=orthogonalEdgeStyle;rounded=0;orthogonalLoop=1;jettySize=auto;html=1;" edge="1" parent="1" source="hhqkoH7DIy3Lh6CEVrbi-38" target="hhqkoH7DIy3Lh6CEVrbi-41">
          <mxGeometry relative="1" as="geometry" />
        </mxCell>
        <mxCell id="hhqkoH7DIy3Lh6CEVrbi-38" value="counter = 1&lt;br&gt;total = 0" style="rounded=1;whiteSpace=wrap;html=1;absoluteArcSize=1;arcSize=14;strokeWidth=2;" vertex="1" parent="1">
          <mxGeometry x="140" y="140" width="120" height="48.75" as="geometry" />
        </mxCell>
        <mxCell id="hhqkoH7DIy3Lh6CEVrbi-49" value="" style="edgeStyle=orthogonalEdgeStyle;rounded=0;orthogonalLoop=1;jettySize=auto;html=1;" edge="1" parent="1" source="hhqkoH7DIy3Lh6CEVrbi-39" target="hhqkoH7DIy3Lh6CEVrbi-42">
          <mxGeometry relative="1" as="geometry" />
        </mxCell>
        <mxCell id="hhqkoH7DIy3Lh6CEVrbi-39" value="total += num" style="rounded=1;whiteSpace=wrap;html=1;absoluteArcSize=1;arcSize=14;strokeWidth=2;" vertex="1" parent="1">
          <mxGeometry x="140" y="470" width="120" height="48.75" as="geometry" />
        </mxCell>
        <mxCell id="hhqkoH7DIy3Lh6CEVrbi-47" value="" style="edgeStyle=orthogonalEdgeStyle;rounded=0;orthogonalLoop=1;jettySize=auto;html=1;" edge="1" parent="1" source="hhqkoH7DIy3Lh6CEVrbi-41" target="hhqkoH7DIy3Lh6CEVrbi-37">
          <mxGeometry relative="1" as="geometry" />
        </mxCell>
        <mxCell id="hhqkoH7DIy3Lh6CEVrbi-41" value="&lt;div&gt;while&lt;/div&gt;&lt;div&gt;true&lt;/div&gt;" style="strokeWidth=2;html=1;shape=mxgraph.flowchart.decision;whiteSpace=wrap;" vertex="1" parent="1">
          <mxGeometry x="150" y="230" width="100" height="100" as="geometry" />
        </mxCell>
        <mxCell id="hhqkoH7DIy3Lh6CEVrbi-50" value="" style="edgeStyle=orthogonalEdgeStyle;rounded=0;orthogonalLoop=1;jettySize=auto;html=1;" edge="1" parent="1" source="hhqkoH7DIy3Lh6CEVrbi-42" target="hhqkoH7DIy3Lh6CEVrbi-43">
          <mxGeometry relative="1" as="geometry" />
        </mxCell>
        <mxCell id="hhqkoH7DIy3Lh6CEVrbi-42" value="&lt;div&gt;input&lt;/div&gt;&lt;div&gt;choice&lt;br&gt;&lt;/div&gt;" style="shape=parallelogram;html=1;strokeWidth=2;perimeter=parallelogramPerimeter;whiteSpace=wrap;rounded=1;arcSize=12;size=0.23;" vertex="1" parent="1">
          <mxGeometry x="150" y="560" width="100" height="60" as="geometry" />
        </mxCell>
        <mxCell id="hhqkoH7DIy3Lh6CEVrbi-44" style="edgeStyle=orthogonalEdgeStyle;rounded=0;orthogonalLoop=1;jettySize=auto;html=1;exitX=1;exitY=0.5;exitDx=0;exitDy=0;exitPerimeter=0;entryX=1;entryY=0.5;entryDx=0;entryDy=0;entryPerimeter=0;" edge="1" parent="1" source="hhqkoH7DIy3Lh6CEVrbi-43" target="hhqkoH7DIy3Lh6CEVrbi-41">
          <mxGeometry relative="1" as="geometry">
            <Array as="points">
              <mxPoint x="280" y="710" />
              <mxPoint x="280" y="280" />
            </Array>
          </mxGeometry>
        </mxCell>
        <mxCell id="hhqkoH7DIy3Lh6CEVrbi-53" value="" style="edgeStyle=orthogonalEdgeStyle;rounded=0;orthogonalLoop=1;jettySize=auto;html=1;" edge="1" parent="1" source="hhqkoH7DIy3Lh6CEVrbi-43" target="hhqkoH7DIy3Lh6CEVrbi-52">
          <mxGeometry relative="1" as="geometry" />
        </mxCell>
        <mxCell id="hhqkoH7DIy3Lh6CEVrbi-43" value="choice == &#39;N&#39;" style="strokeWidth=2;html=1;shape=mxgraph.flowchart.decision;whiteSpace=wrap;" vertex="1" parent="1">
          <mxGeometry x="150" y="660" width="100" height="100" as="geometry" />
        </mxCell>
        <mxCell id="hhqkoH7DIy3Lh6CEVrbi-54" value="" style="edgeStyle=orthogonalEdgeStyle;rounded=0;orthogonalLoop=1;jettySize=auto;html=1;" edge="1" parent="1" source="hhqkoH7DIy3Lh6CEVrbi-52" target="hhqkoH7DIy3Lh6CEVrbi-26">
          <mxGeometry relative="1" as="geometry" />
        </mxCell>
        <mxCell id="hhqkoH7DIy3Lh6CEVrbi-52" value="&lt;div&gt;print&lt;/div&gt;&lt;div&gt;total&lt;br&gt;&lt;/div&gt;" style="shape=parallelogram;html=1;strokeWidth=2;perimeter=parallelogramPerimeter;whiteSpace=wrap;rounded=1;arcSize=12;size=0.23;" vertex="1" parent="1">
          <mxGeometry x="150" y="800" width="100" height="60" as="geometry" />
        </mxCell>
        <mxCell id="hhqkoH7DIy3Lh6CEVrbi-55" value="true" style="text;html=1;strokeColor=none;fillColor=none;align=center;verticalAlign=middle;whiteSpace=wrap;rounded=0;" vertex="1" parent="1">
          <mxGeometry x="200" y="760" width="30" height="20" as="geometry" />
        </mxCell>
      </root>
    </mxGraphModel>
  </diagram>
</mxfile>
